<?xml version="1.0" encoding="utf-8"?>
<!-- Generator: Adobe Illustrator 27.0.0, SVG Export Plug-In . SVG Version: 6.00 Build 0)  -->
<svg version="1.1" id="레이어_1" xmlns="http://www.w3.org/2000/svg" xmlns:xlink="http://www.w3.org/1999/xlink" x="0px"
	 y="0px" viewBox="0 0 320 320" style="enable-background:new 0 0 320 320;" xml:space="preserve">
<style type="text/css">
	.st0{fill:#FFFFFF;}
	.st1{fill:#FF0000;}
</style>
<rect x="0" class="st0" width="320" height="320"/>
<g>
	<path class="st1" d="M258.8,110.4c-2.4-8.9-9.3-15.8-18.2-18.2c-16-4.3-80.4-4.4-80.4-4.4s-64.4-0.1-80.4,4.2
		c-8.9,2.4-15.8,9.3-18.2,18.2c-4.3,16-4.4,49.5-4.4,49.5s-0.1,33.5,4.2,49.6c2.4,8.9,9.3,15.8,18.2,18.2c16,4.3,80.4,4.4,80.4,4.4
		s64.4,0.1,80.4-4.2c8.9-2.4,15.8-9.3,18.2-18.2c4.3-16,4.4-49.5,4.4-49.5S263.1,126.5,258.8,110.4z"/>
	<polygon class="st0" points="139.5,190.6 193,159.8 139.6,128.9 	"/>
</g>
</svg>
