<?xml version="1.0" encoding="utf-8"?>
<!-- Generator: Adobe Illustrator 27.0.0, SVG Export Plug-In . SVG Version: 6.00 Build 0)  -->
<svg version="1.1" id="레이어_1" xmlns="http://www.w3.org/2000/svg" xmlns:xlink="http://www.w3.org/1999/xlink" x="0px"
	 y="0px" viewBox="0 0 320 320" style="enable-background:new 0 0 320 320;" xml:space="preserve">
<style type="text/css">
	.st0{fill:#17CE3A;}
	.st1{fill:#FFFFFF;}
</style>
<rect x="0" class="st0" width="320" height="320"/>
<path class="st1" d="M76,193.5l29.9-67.4c2.1-4.6,5.9-7.5,11-7.5h1.1c5.1,0,8.8,2.8,10.9,7.5l29.9,67.4c0.6,1.2,0.9,2.5,1,3.8
	c0.1,4.9-3.8,9-8.8,9.1c-0.1,0-0.1,0-0.2,0c-4.4,0-7.3-2.6-9.1-6.5l-5.7-13.5H98.2l-6,14.1c-1.4,3.6-4.9,5.9-8.7,5.9
	c-4.8,0-8.7-3.9-8.7-8.7c0-0.1,0-0.1,0-0.2C74.9,196.1,75.3,194.7,76,193.5z M128.9,169.7l-11.9-28.3l-11.9,28.3H128.9z"/>
<path class="st1" d="M165.1,163v-0.2c0-24.4,18.4-44.3,44.7-44.3c12.9,0,21.5,3.4,28.6,8.7c2.3,1.8,3.7,4.5,3.7,7.5
	c0,5.1-4.1,9.2-9.2,9.2c0,0-0.1,0-0.1,0c-2,0-4-0.7-5.6-1.8c-5.3-3.9-10.8-6.1-17.5-6.1c-14.4,0-24.8,12-24.8,26.7v0.2
	c0,14.7,10.2,26.9,24.8,26.9c8,0,13.2-2.4,18.6-6.7c3.6-3.2,9.1-2.9,12.3,0.7c3.2,3.6,2.9,9.1-0.7,12.3c-0.1,0.1-0.3,0.2-0.4,0.3
	c-7.7,6.7-16.8,10.8-30.5,10.8C183.9,207.1,165.1,187.6,165.1,163z"/>
</svg>
