<?xml version="1.0" encoding="utf-8"?>
<!-- Generator: Adobe Illustrator 27.0.0, SVG Export Plug-In . SVG Version: 6.00 Build 0)  -->
<svg version="1.1" id="레이어_1" xmlns="http://www.w3.org/2000/svg" xmlns:xlink="http://www.w3.org/1999/xlink" x="0px"
	 y="0px" viewBox="0 0 320 320" style="enable-background:new 0 0 320 320;" xml:space="preserve">
<style type="text/css">
	.st0{fill:#24292F;}
	.st1{fill-rule:evenodd;clip-rule:evenodd;fill:#FFFFFF;}
</style>
<rect x="0" class="st0" width="320" height="320"/>
<path class="st1" d="M160,65c-53.8,0-97.4,43.6-97.4,97.4c0,43,27.9,79.5,66.6,92.4c4.9,0.9,6.6-2.1,6.6-4.7c0-2.3-0.1-8.4-0.1-16.6
	c-27.1,5.9-32.8-13.1-32.8-13.1c-4.4-11.3-10.8-14.2-10.8-14.2c-8.8-6,0.7-5.9,0.7-5.9c9.8,0.7,14.9,10,14.9,10
	c8.7,14.9,22.8,10.6,28.3,8.1c0.9-6.3,3.4-10.6,6.2-13c-21.6-2.5-44.4-10.8-44.4-48.1c0-10.6,3.8-19.3,10-26.1
	c-1-2.5-4.3-12.4,1-25.8c0,0,8.2-2.6,26.8,10c7.8-2.2,16.1-3.2,24.4-3.3c8.3,0,16.6,1.1,24.4,3.3c18.6-12.6,26.8-10,26.8-10
	c5.3,13.4,2,23.3,1,25.8c6.2,6.8,10,15.5,10,26.1c0,37.4-22.8,45.6-44.5,48.1c3.5,3,6.6,9,6.6,18c0,13-0.1,23.5-0.1,26.7
	c0,2.6,1.8,5.6,6.7,4.7c38.7-12.9,66.5-49.4,66.5-92.4C257.4,108.6,213.8,65,160,65z"/>
</svg>
