<?xml version="1.0" encoding="utf-8"?>
<!-- Generator: Adobe Illustrator 28.0.0, SVG Export Plug-In . SVG Version: 6.00 Build 0)  -->
<svg version="1.1" id="레이어_1" xmlns="http://www.w3.org/2000/svg" xmlns:xlink="http://www.w3.org/1999/xlink" x="0px"
	 y="0px" viewBox="0 0 320 320" style="enable-background:new 0 0 320 320;" xml:space="preserve">
<style type="text/css">
	.st0{display:none;fill:#FFFFFF;}
	.st1{font-family:'Pretendard-Black-KSCpc-EUC-H';}
	.st2{font-size:184.475px;}
	.st3{letter-spacing:-12;}
	.st4{fill:#FFFFFF;}
</style>
<path d="M67.4,0.2h185.2c37.2,0,67.4,30.2,67.4,67.4v185.2c0,37.2-30.2,67.4-67.4,67.4H67.4C30.2,320.2,0,290,0,252.8V67.6
	C0,30.4,30.2,0.2,67.4,0.2z"/>
<text transform="matrix(1 0 0 1 44.1958 228.3232)" class="st0 st1 st2 st3">13’</text>
<g>
	<path class="st4" d="M116.1,228.3H81.7v-98.7h-0.7l-28.8,17.3v-29.4l32.2-19.6h31.7V228.3z"/>
	<path class="st4" d="M128.2,189.1h34.6c0.3,7.7,7.7,13.3,18.2,13.3c10.4,0,17.5-5.9,17.5-14.2c0-8.3-8.2-14.1-20.2-14.2h-13.2
		v-23.8h13.2c10.9,0,18.5-5.9,18.4-14.1c0.1-7.9-6.3-13.5-15.5-13.5c-10,0-17.3,5.8-17.5,13.9h-32.8c0.1-23.7,21-40.4,50.3-40.4
		c28.6,0,48.7,16,48.6,37.8c0.1,14.6-11.1,24.6-26.5,26.3v1.1c20.7,2.3,31.4,13.7,31.3,29.7c0.1,22.9-22.2,39.1-53.9,39.1
		C150.3,230.1,128.5,213.1,128.2,189.1z"/>
	<path class="st4" d="M259.1,150.7h-22.9l8.3-52.8h31.3L259.1,150.7z"/>
</g>
</svg>
