<?xml version="1.0" encoding="utf-8"?>
<!-- Generator: Adobe Illustrator 27.0.0, SVG Export Plug-In . SVG Version: 6.00 Build 0)  -->
<svg version="1.1" id="레이어_1" xmlns="http://www.w3.org/2000/svg" xmlns:xlink="http://www.w3.org/1999/xlink" x="0px"
	 y="0px" viewBox="0 0 320 320" style="enable-background:new 0 0 320 320;" xml:space="preserve">
<style type="text/css">
	.st0{fill:#3D3938;}
	.st1{fill:#D0C5C0;}
</style>
<rect y="0" class="st0" width="320" height="320"/>
<g>
	<path d="M296.1,153.3l5.1-8.5l-2.8-9.1H103.7l-0.9,6.6l-1.8-6.6H55.7l-1.6,6.3h-3.8l-0.9,3.5l-5-9.7H29.7l-11.3,36.2l9,12.3h14.8
		l1.8-6.8h6l4,6.8h45.6l1.1-7.9l2.5,7.9h152.3l6.2-12.8h5.6l5.2-10.1l5.5,22.9h15.3l8.5-12.3L296.1,153.3z M164.6,161.9l0-4.3h13.1
		l0.1,4.3H164.6z"/>
	<polygon class="st0" points="28.7,181.7 21.2,171.5 33.2,171.5 40.1,181.7 	"/>
	<polygon class="st0" points="77.5,171.5 65.4,171.5 70.6,181.7 82,181.7 	"/>
	<polygon class="st0" points="81.5,171.5 85.8,181.7 97.3,181.7 93.6,171.5 	"/>
	<polygon class="st0" points="117.8,171.5 120.2,181.7 146.9,181.7 145.9,171.5 	"/>
	<polygon class="st0" points="178.1,171.5 177.4,181.7 150.7,181.7 149.9,171.5 	"/>
	<polygon class="st0" points="182.1,171.5 194.2,171.5 192.6,181.7 181.2,181.7 	"/>
	<polygon class="st0" points="198.2,171.5 196.4,181.7 207.9,181.7 210.3,171.5 	"/>
	<polygon class="st0" points="214.3,171.5 211.7,181.7 223.1,181.7 226.4,171.5 	"/>
	<polygon class="st0" points="230.4,171.5 226.9,181.7 238.4,181.7 242.5,171.5 	"/>
	<polygon class="st0" points="246.5,171.5 242.2,181.7 253.6,181.7 258.6,171.5 	"/>
	<polygon class="st0" points="286.8,171.5 280.3,181.7 291.8,181.7 298.8,171.5 	"/>
	<polygon class="st0" points="101.7,171.5 104.9,181.7 116.4,181.7 113.7,171.5 	"/>
	<polygon class="st0" points="49.3,171.5 61.4,171.5 66.8,181.7 55.3,181.7 	"/>
	<g>
		<g>
			<path class="st1" d="M52.8,157.6h-3.9l-1.8,6.8h-7.9l1.9-6.8h-3.9l-3.9,13.9H21.2l10.3-33.2h11.2l-1.8,6.3h3.8l-1.8,6.4h7.7
				l1.7-6.4H56l1.6-6.3h11.2l-7.4,33.2H49.3L52.8,157.6z"/>
			<path class="st1" d="M72.6,138.3h11.2l-6.3,33.2H65.4L72.6,138.3z"/>
			<path class="st1" d="M121.1,138.3h26.1l-0.2,6.3h-15.2l-0.5,6.4h15.4l-0.3,6.6h-15.6l-0.5,6.8h15.8l-0.3,7h-28.2L121.1,138.3z"/>
			<path class="st1" d="M151,138.3h26.1l0.2,6.3h-15.2l-0.1,19.9h15.8l0.2,7h-28.2L151,138.3z"/>
			<path class="st1" d="M197.2,157.6h-3.9l0.9,13.9h-12.1l-1.3-33.2H207l1.3,12.7h-3.9l0.3,3.3h3.9l1.7,17.2h-12.1L197.2,157.6z
				 M192.4,144.5l0.4,6.4h3.9l-0.5-6.4H192.4z"/>
			<path class="st1" d="M240.6,138.3h26.1l1.5,6.3h-15.2l1.3,6.4h15.4l1.6,6.6h-15.6l2.9,13.9h-12.1L240.6,138.3z"/>
			<path class="st1" d="M279.6,144.5H272l-1.6-6.3h26.1l2,6.3h-7.6l7.9,26.9h-12.1L279.6,144.5z"/>
			<path class="st1" d="M103.1,161h-3.9l1-6.7h-3.9l-2.6,17.2H81.5l6-33.2h11.2l-1,6.3h3.8l-0.9,6.4h3.9l1.7-12.7h11.2l-3.6,33.2
				h-12L103.1,161z"/>
		</g>
		<path class="st1" d="M236.8,138.3h-26.1l3.6,33.2h12.1L225,161h3.9l1.5,10.5h12.1L236.8,138.3z M228,150.4h1.9l0.9,6h-2.6
			l-0.3-2.2h-3.9l0.3,2.2h-2.6l-0.8-6h1.9l-0.2-1.6h-4.5l-0.5-4.3h5l0.5,3.7h3.8l-0.5-3.7h5l0.7,4.3h-4.5L228,150.4z"/>
	</g>
</g>
</svg>
