<?xml version="1.0" encoding="utf-8"?>
<!-- Generator: Adobe Illustrator 27.0.0, SVG Export Plug-In . SVG Version: 6.00 Build 0)  -->
<svg version="1.1" id="레이어_1" xmlns="http://www.w3.org/2000/svg" xmlns:xlink="http://www.w3.org/1999/xlink" x="0px"
	 y="0px" viewBox="0 0 1440 1440" style="enable-background:new 0 0 1440 1440;" xml:space="preserve">
<style type="text/css">
	.st0{fill:#5865F2;}
	.st1{clip-path:url(#SVGID_00000160903918322077311120000009299903151452966326_);}
	.st2{fill:#FFFFFF;}
</style>
<rect class="st0" width="1440" height="1440"/>
<g>
	<defs>
		<rect id="SVGID_1_" x="230.5" y="340.8" width="979" height="758.4"/>
	</defs>
	<clipPath id="SVGID_00000127724198865486964560000015943023043437335445_">
		<use xlink:href="#SVGID_1_"  style="overflow:visible;"/>
	</clipPath>
	<g style="clip-path:url(#SVGID_00000127724198865486964560000015943023043437335445_);">
		<path class="st2" d="M1059.3,408.3C996.9,379.7,930,358.6,860,346.5c-1.3-0.2-2.5,0.3-3.2,1.5c-8.6,15.3-18.1,35.3-24.8,51
			c-75.2-11.3-150.1-11.3-223.8,0c-6.7-16-16.6-35.7-25.2-51c-0.7-1.1-1.9-1.7-3.2-1.5c-69.9,12-136.8,33.1-199.3,61.8
			c-0.5,0.2-1,0.6-1.3,1.1C252.3,599.1,217.5,784,234.6,966.7c0.1,0.9,0.6,1.7,1.3,2.3c83.7,61.5,164.9,98.8,244.5,123.6
			c1.3,0.4,2.6-0.1,3.4-1.1c18.8-25.7,35.6-52.8,50-81.3c0.8-1.7,0-3.7-1.7-4.3c-26.6-10.1-52-22.4-76.4-36.4
			c-1.9-1.1-2.1-3.9-0.3-5.2c5.1-3.8,10.3-7.8,15.2-11.9c0.9-0.7,2.1-0.9,3.2-0.4c160.2,73.1,333.7,73.1,492,0
			c1-0.5,2.3-0.3,3.2,0.4c4.9,4,10,8.1,15.2,11.9c1.8,1.3,1.7,4.1-0.3,5.2c-24.4,14.3-49.7,26.3-76.4,36.4c-1.7,0.7-2.5,2.7-1.7,4.4
			c14.7,28.5,31.5,55.6,50,81.3c0.8,1.1,2.2,1.6,3.4,1.2c80-24.7,161.1-62.1,244.8-123.6c0.7-0.5,1.2-1.4,1.3-2.3
			c20.4-211.2-34.2-394.6-144.7-557.2C1060.3,409,1059.8,408.6,1059.3,408.3z M557.7,855.5c-48.2,0-88-44.3-88-98.7
			c0-54.4,39-98.7,88-98.7c49.4,0,88.8,44.7,88,98.7C645.6,811.2,606.7,855.5,557.7,855.5z M883,855.5c-48.2,0-88-44.3-88-98.7
			c0-54.4,39-98.7,88-98.7c49.4,0,88.8,44.7,88,98.7C970.9,811.2,932.3,855.5,883,855.5z"/>
	</g>
</g>
</svg>
