<?xml version="1.0" encoding="utf-8"?>
<!-- Generator: Adobe Illustrator 27.0.0, SVG Export Plug-In . SVG Version: 6.00 Build 0)  -->
<svg version="1.1" id="레이어_1" xmlns="http://www.w3.org/2000/svg" xmlns:xlink="http://www.w3.org/1999/xlink" x="0px"
	 y="0px" viewBox="0 0 320 320" style="enable-background:new 0 0 320 320;" xml:space="preserve">
<style type="text/css">
	.st0{fill-rule:evenodd;clip-rule:evenodd;fill:#1DC997;}
	.st1{fill-rule:evenodd;clip-rule:evenodd;fill:#FFFFFF;}
</style>
<rect class="st0" width="320" height="320"/>
<path class="st1" d="M81.7,96.5v12.6h30l22.8,128.4l29.7-2.1c29.2-37,48.9-64.7,59.1-83.1c10.4-18.6,15.6-34.1,15.6-46.5
	c0-7.4-2.2-13-6.6-16.8c-4.2-3.8-9.5-5.7-15.9-5.7c-12,0-22,5.1-30,15.3c7.8,5.2,13.1,9.5,15.9,12.9c3,3.2,4.5,7.5,4.5,12.9
	c0,9-2.7,19.2-8.1,30.6c-5.2,11.4-10.9,21.5-17.1,30.3c-4,5.6-9.1,12.5-15.3,20.7L146.8,95.3c-1.6-8-6.6-12-15-12
	c-3.8,0-11.1,1.6-21.9,4.8C99.1,91.1,89.7,93.9,81.7,96.5z"/>
</svg>
