<?xml version="1.0" encoding="UTF-8"?>
<svg id="b" data-name="레이어 2" xmlns="http://www.w3.org/2000/svg" width="361.663" height="170.205" viewBox="0 0 361.663 170.205">
  <g id="c" data-name="레이어 1">
    <g>
      <rect x="0" y=".005" width="42.549" height="170.195" rx="21.274" ry="21.274" fill="#2c2c2c"/>
      <rect x="63.822" y=".005" width="42.549" height="170.195" rx="21.274" ry="21.274" fill="#2c2c2c"/>
      <rect x="127.644" y=".005" width="42.549" height="170.195" rx="21.274" ry="21.274" fill="#2c2c2c"/>
      <path d="M361.663,21.296c0,3.198-.721,6.444-2.25,9.497l-63.821,127.647c-3.725,7.455-11.243,11.766-19.047,11.766-3.198,0-6.444-.721-9.497-2.25-10.508-5.254-14.77-18.036-9.516-28.543L321.354,11.766c3.725-7.455,11.243-11.766,19.047-11.766,3.198,0,6.444,.721,9.497,2.25,7.455,3.725,11.766,11.243,11.766,19.047Z" fill="#fdde59"/>
      <path d="M297.845,21.296c0,3.198-.721,6.444-2.25,9.497l-63.821,127.647c-3.725,7.455-11.243,11.766-19.047,11.766-3.198,0-6.444-.721-9.497-2.25-10.508-5.254-14.77-18.036-9.516-28.543L257.536,11.766c3.725-7.455,11.243-11.766,19.047-11.766,3.198,0,6.444,.721,9.497,2.25,7.455,3.725,11.766,11.243,11.766,19.047Z" fill="#2c2c2c"/>
      <path d="M234.028,21.296c0,3.198-.721,6.444-2.25,9.497l-63.821,127.647c-3.725,7.455-11.243,11.766-19.047,11.766-3.198,0-6.444-.721-9.497-2.25-10.508-5.254-14.77-18.036-9.516-28.543L193.719,11.766c3.725-7.455,11.243-11.766,19.047-11.766,3.198,0,6.444,.721,9.497,2.25,7.455,3.725,11.766,11.243,11.766,19.047Z" fill="#fdde59"/>
      <path d="M106.393,21.296c0,3.198-.721,6.444-2.25,9.497l-63.821,127.647c-3.725,7.455-11.243,11.766-19.047,11.766-3.198,0-6.444-.721-9.497-2.25-10.508-5.254-14.77-18.036-9.516-28.543L66.084,11.766c3.725-7.455,11.243-11.766,19.047-11.766,3.198,0,6.444,.721,9.497,2.25,7.455,3.725,11.766,11.243,11.766,19.047Z" fill="#fdde59"/>
    </g>
  </g>
</svg>