<?xml version="1.0" encoding="utf-8"?>
<!-- Generator: Adobe Illustrator 27.0.0, SVG Export Plug-In . SVG Version: 6.00 Build 0)  -->
<svg version="1.1" id="b" xmlns="http://www.w3.org/2000/svg" xmlns:xlink="http://www.w3.org/1999/xlink" x="0px" y="0px"
	 viewBox="0 0 361.7 361.7" style="enable-background:new 0 0 361.7 361.7;" xml:space="preserve">
<style type="text/css">
	.st0{fill:#2C2C2C;}
	.st1{fill:#FDDE59;}
</style>
<g id="c">
	<g>
		<path class="st0" d="M21.3,95.7L21.3,95.7c11.8,0,21.3,9.5,21.3,21.3v127.6c0,11.7-9.5,21.3-21.3,21.3h0
			C9.5,265.9,0,256.4,0,244.7V117C0,105.3,9.5,95.7,21.3,95.7z"/>
		<path class="st0" d="M85.1,95.7L85.1,95.7c11.8,0,21.3,9.5,21.3,21.3v127.6c0,11.7-9.5,21.3-21.3,21.3h0
			c-11.7,0-21.3-9.5-21.3-21.3V117C63.8,105.3,73.3,95.7,85.1,95.7z"/>
		<path class="st0" d="M148.9,95.7L148.9,95.7c11.8,0,21.3,9.5,21.3,21.3v127.6c0,11.7-9.5,21.3-21.3,21.3h0
			c-11.7,0-21.3-9.5-21.3-21.3V117C127.6,105.3,137.2,95.7,148.9,95.7z"/>
		<path class="st1" d="M361.7,117c0,3.2-0.7,6.4-2.2,9.5l-63.8,127.6c-3.7,7.5-11.2,11.8-19,11.8c-3.2,0-6.4-0.7-9.5-2.2
			c-10.5-5.3-14.8-18-9.5-28.5l63.8-127.6c3.7-7.5,11.2-11.8,19-11.8c3.2,0,6.4,0.7,9.5,2.2C357.4,101.7,361.7,109.2,361.7,117
			L361.7,117z"/>
		<path class="st0" d="M297.8,117c0,3.2-0.7,6.4-2.2,9.5l-63.8,127.6c-3.7,7.5-11.2,11.8-19,11.8c-3.2,0-6.4-0.7-9.5-2.2
			c-10.5-5.3-14.8-18-9.5-28.5l63.8-127.6c3.7-7.5,11.2-11.8,19-11.8c3.2,0,6.4,0.7,9.5,2.2C293.5,101.7,297.8,109.2,297.8,117
			L297.8,117z"/>
		<path class="st1" d="M234,117c0,3.2-0.7,6.4-2.2,9.5L168,254.2c-3.7,7.5-11.2,11.8-19,11.8c-3.2,0-6.4-0.7-9.5-2.2
			c-10.5-5.3-14.8-18-9.5-28.5l63.8-127.6c3.7-7.5,11.2-11.8,19-11.8c3.2,0,6.4,0.7,9.5,2.2C229.7,101.7,234,109.2,234,117L234,117z
			"/>
		<path class="st1" d="M106.4,117c0,3.2-0.7,6.4-2.2,9.5L40.3,254.2c-3.7,7.5-11.2,11.8-19,11.8c-3.2,0-6.4-0.7-9.5-2.2
			c-10.5-5.3-14.8-18-9.5-28.5l63.8-127.6c3.7-7.5,11.2-11.8,19-11.8c3.2,0,6.4,0.7,9.5,2.2C102.1,101.7,106.4,109.2,106.4,117
			L106.4,117z"/>
	</g>
</g>
</svg>
