<?xml version="1.0" encoding="UTF-8"?>
<svg id="a" data-name="레이어_1" xmlns="http://www.w3.org/2000/svg" width="512" height="149.852" viewBox="0 0 512 149.852">
  <g>
    <polygon points="62.496 2.015 0 147.838 41.664 147.838 104.159 2.015 62.496 2.015" fill="#ffce00"/>
    <polygon points="62.496 147.838 124.991 2.015 166.655 2.015 104.159 147.838 62.496 147.838" fill="#19191e"/>
  </g>
  <g>
    <path d="M253.365,36.154c-1.813-2.551-4.365-4.481-7.653-5.79-3.291-1.309-7.286-1.964-11.984-1.964-4.5,0-8.326.604-11.481,1.813-3.156,1.208-5.539,2.887-7.15,5.035s-2.416,4.632-2.416,7.452c-.136,4.229,1.644,7.603,5.337,10.121,3.691,2.517,9.129,4.617,16.314,6.293l12.689,2.82c14.636,3.223,25.68,8.409,33.133,15.559,7.452,7.15,11.245,16.5,11.379,28.048,0,9.131-2.316,17.003-6.949,23.615-4.632,6.614-11.246,11.682-19.839,15.207-8.595,3.525-18.9,5.287-30.917,5.287-12.286,0-22.928-1.845-31.925-5.539-8.997-3.692-15.945-9.248-20.846-16.667-4.901-7.418-7.486-16.632-7.754-27.644h33.032c.335,4.633,1.644,8.545,3.927,11.733,2.282,3.19,5.404,5.589,9.366,7.2,3.96,1.611,8.525,2.418,13.696,2.418,4.833,0,8.995-.67,12.487-2.015,3.489-1.342,6.159-3.188,8.005-5.539,1.847-2.349,2.77-5.068,2.77-8.158,0-2.751-.84-5.136-2.517-7.15-1.679-2.014-4.23-3.759-7.654-5.237-3.424-1.476-7.922-2.853-13.495-4.128l-15.308-3.625c-13.091-2.954-23.095-7.72-30.01-14.301-6.916-6.579-10.373-15.24-10.373-25.982,0-8.862,2.418-16.682,7.251-23.464,4.834-6.78,11.546-12.068,20.142-15.861,8.593-3.793,18.362-5.691,29.306-5.691,11.077,0,20.796,1.881,29.155,5.639,8.359,3.761,14.837,9.065,19.436,15.913,4.598,6.848,6.931,14.77,6.999,23.766h-32.931c-.337-3.557-1.41-6.612-3.223-9.164Z" fill="#19191e"/>
    <path d="M320.144,142.802c-8.293-4.698-14.637-11.312-19.034-19.839-4.399-8.526-6.597-18.362-6.597-29.507,0-11.212,2.215-21.064,6.647-29.559,4.43-8.492,10.775-15.089,19.034-19.788,8.257-4.698,17.992-7.049,29.205-7.049,9.935,0,18.68,1.796,26.234,5.388,7.553,3.593,13.427,8.711,17.623,15.358,4.195,6.647,6.428,14.368,6.697,23.162h-31.824c-.47-3.692-1.494-6.914-3.071-9.668-1.579-2.751-3.643-4.849-6.194-6.293-2.552-1.443-5.506-2.165-8.862-2.165-4.229,0-7.906,1.175-11.027,3.525-3.122,2.35-5.556,5.774-7.302,10.272s-2.618,9.969-2.618,16.415c0,6.513.855,12.034,2.567,16.567s4.13,7.973,7.252,10.322c3.121,2.351,6.83,3.525,11.128,3.525,3.288,0,6.227-.688,8.812-2.064,2.584-1.376,4.683-3.408,6.295-6.093,1.611-2.684,2.618-5.941,3.02-9.768h31.824c-.337,8.862-2.585,16.633-6.747,23.313-4.164,6.681-9.97,11.851-17.422,15.509s-16.215,5.488-26.284,5.488c-11.28,0-21.065-2.349-29.356-7.049Z" fill="#19191e"/>
    <path d="M441.103,147.838h-33.939V2.014h32.83v56.295h1.108c2.619-6.712,6.747-11.934,12.387-15.66s12.453-5.589,20.444-5.589c7.653,0,14.35,1.696,20.091,5.086,5.74,3.39,10.17,8.174,13.292,14.35,3.122,6.178,4.683,13.36,4.683,21.551v69.79h-33.939v-63.244c0-4.161-.704-7.703-2.115-10.624s-3.458-5.169-6.142-6.747c-2.687-1.576-5.942-2.366-9.769-2.366-3.761,0-7.049.823-9.87,2.467-2.819,1.647-5.035,3.995-6.647,7.049-1.611,3.057-2.416,6.664-2.416,10.827v62.639Z" fill="#19191e"/>
  </g>
</svg>