<?xml version="1.0" encoding="UTF-8"?>
<svg id="_레이어_1" data-name="레이어 1" xmlns="http://www.w3.org/2000/svg" version="1.1" viewBox="0 0 512 512">
  <defs>
    <style>
      .cls-1 {
        fill: #00c7ae;
      }

      .cls-1, .cls-2 {
        stroke-width: 0px;
      }

      .cls-2 {
        fill: #fff;
      }
    </style>
  </defs>
  <rect class="cls-1" x="0" width="512" height="512"/>
  <path class="cls-2" d="M305.7,120.3c33.6.1,52.6,14.2,56.8,42,3.7,24.8-9.6,47.2-33.1,54.8-11.4,3.7-24.1,6.7-30.7-6.6-6-11.9,1.4-19.8,12.4-25.1,8.1-3.9,16.7-9.9,12.5-19.9-4.3-10-15.3-11.2-25.2-9.9-16.2,2.2-29.7,9.7-36.8,25.1-6.9,14.8,1.7,25.9,10.4,36.8,12.1,15.2,25.2,29.7,35.6,46,28.1,44,13.9,97.3-31.7,122.4-44.8,24.7-100.3,10.1-120.9-31.8-17.4-35.5.3-88.8,35-106.3,10-5,19-4.6,26.3,3.8,7.1,8.2,4,16.3-2.6,23.4-3.3,3.5-7.5,6.3-10.5,10-14.8,18.9-24.1,39.7-6.1,60.5,15.9,18.3,37.3,19.5,58.4,8.3,22.9-12.2,32.4-38.6,23.2-62.2-6.5-16.7-19.4-28.8-31.2-41.7-22.7-24.6-34.9-52.4-19.7-85,15.2-32.6,43-45.6,78.1-44.6Z"/>
</svg>