<?xml version="1.0" encoding="utf-8"?>
<!-- Generator: Adobe Illustrator 28.0.0, SVG Export Plug-In . SVG Version: 6.00 Build 0)  -->
<svg version="1.1"
	 id="svg5" xmlns:sodipodi="http://sodipodi.sourceforge.net/DTD/sodipodi-0.dtd" xmlns:inkscape="http://www.inkscape.org/namespaces/inkscape" xmlns:svg="http://www.w3.org/2000/svg" inkscape:version="1.2 (dc2aedaf03, 2022-05-15)" sodipodi:docname="logo_dictform.svg"
	 xmlns="http://www.w3.org/2000/svg" xmlns:xlink="http://www.w3.org/1999/xlink" x="0px" y="0px" viewBox="0 0 500 500"
	 style="enable-background:new 0 0 500 500;" xml:space="preserve">
<style type="text/css">
	.st0{fill:#2C2C2C;}
	.st1{enable-background:new    ;}
	.st2{fill:#FFCF00;}
</style>
<sodipodi:namedview  bordercolor="#ffffff" borderopacity="1" id="namedview7" inkscape:current-layer="layer1" inkscape:cx="249.60869" inkscape:cy="271.88256" inkscape:deskcolor="#505050" inkscape:document-units="mm" inkscape:pagecheckerboard="1" inkscape:pageopacity="0" inkscape:showpageshadow="0" inkscape:window-height="1085" inkscape:window-maximized="0" inkscape:window-width="1651" inkscape:window-x="3989" inkscape:window-y="512" inkscape:zoom="1.4142136" pagecolor="#505050" showgrid="false">
	</sodipodi:namedview>
<g id="layer1" inkscape:groupmode="layer" inkscape:label="Layer 1">
	<rect id="rect11690" x="0" y="0" class="st0" width="500" height="500"/>
	<g class="st1">
		<path class="st2" d="M128.4,323.8v-190h67.7c57.2,0,92.3,35.6,92.1,94.7c0.1,59.4-34.9,95.3-92.9,95.3H128.4z M193.8,290
			c36.2,0,55.1-18.8,55.1-61.4c0-42.3-18.9-60.9-54.9-60.9h-26.2V290H193.8z"/>
		<path class="st2" d="M375.5,210.4h-28.3v113.4h-38.8V210.4h-20.2v-29.1h20.2v-10.8c0-30.1,18.1-45.7,46.7-45.7
			c8.8,0,16.3,0.8,23.1,2.4v29.4c-5.6-0.5-9.7-0.7-11.8-0.8c-12.5,0.1-19.2,4.9-19.2,16.8v8.7h28.3V210.4z"/>
	</g>
	<rect id="rect10570" x="128.4" y="338.1" class="st2" width="249.7" height="38.6"/>
</g>
</svg>
