<?xml version="1.0" encoding="utf-8"?>
<!-- Generator: Adobe Illustrator 27.0.0, SVG Export Plug-In . SVG Version: 6.00 Build 0)  -->
<svg version="1.1" id="레이어_1" xmlns="http://www.w3.org/2000/svg" xmlns:xlink="http://www.w3.org/1999/xlink" x="0px"
	 y="0px" viewBox="0 0 320 320" style="enable-background:new 0 0 320 320;" xml:space="preserve">
<style type="text/css">
	.st0{fill:#FF56AC;}
	.st1{fill:#FFFFFF;}
</style>
<rect x="0.3" class="st0" width="319.7" height="319.7"/>
<g>
	<path id="osu_x21__x5F_txt_x5F_Path_2_" class="st1" d="M103.7,183.6c-3.5,0-6.6-0.6-9.2-1.7c-2.6-1.1-4.8-2.8-6.5-4.8
		c-1.7-2-3-4.4-3.9-7.2c-0.9-2.8-1.3-5.7-1.3-8.9c0-3.2,0.5-6.2,1.3-9c0.9-2.8,2.2-5.3,3.9-7.3c1.7-2,3.9-3.7,6.5-4.9
		c2.6-1.2,5.7-1.8,9.2-1.8c3.5,0,6.6,0.6,9.2,1.8c2.6,1.2,4.8,2.8,6.6,4.9c1.7,2,3,4.5,3.9,7.3c0.8,2.8,1.3,5.8,1.3,9
		c0,3.2-0.5,6.2-1.3,8.9c-0.8,2.8-2.1,5.2-3.9,7.2c-1.7,2-3.9,3.7-6.6,4.8C110.4,183.1,107.2,183.6,103.7,183.6z M103.7,174.5
		c3.2,0,5.4-1.2,6.8-3.5c1.4-2.3,2-5.7,2-10.1c0-4.4-0.7-7.7-2-10.1s-3.6-3.5-6.8-3.5c-3.1,0-5.3,1.2-6.7,3.5c-1.4,2.3-2,5.7-2,10.1
		s0.7,7.7,2,10.1C98.3,173.4,100.6,174.5,103.7,174.5z M142.6,163.6c-3.2-0.9-5.6-2.3-7.4-4c-1.8-1.8-2.6-4.4-2.6-8
		c0-4.3,1.5-7.6,4.6-10.1c3.1-2.4,7.2-3.6,12.6-3.6c2.2,0,4.4,0.2,6.5,0.6c2.1,0.4,4.3,1,6.5,1.8c-0.2,1.4-0.4,3-0.8,4.6
		c-0.5,1.6-1,2.9-1.6,4.1c-1.4-0.5-2.9-1.1-4.4-1.5c-1.7-0.5-3.4-0.6-5.1-0.6c-1.9,0-3.4,0.3-4.4,0.9s-1.6,1.5-1.6,2.9
		c0,1.2,0.4,2.1,1.1,2.6s1.8,1,3.2,1.4l4.8,1.4c1.6,0.5,3,1,4.3,1.7c1.3,0.7,2.3,1.4,3.2,2.4c0.9,1,1.6,2.1,2.1,3.5
		c0.5,1.4,0.8,3.2,0.8,5.1c0,2.1-0.5,4-1.3,5.8c-0.9,1.8-2.1,3.4-3.8,4.7c-1.7,1.4-3.7,2.3-6,3.2c-2.3,0.8-5,1.1-8,1.1
		c-1.4,0-2.6-0.1-3.7-0.2c-1.1-0.1-2.2-0.2-3.2-0.5c-1.1-0.2-2-0.5-3.1-0.8c-1-0.3-2.1-0.7-3.3-1.1c0.1-1.5,0.4-3.1,0.8-4.6
		c0.5-1.6,1-3.1,1.7-4.5c1.9,0.8,3.6,1.3,5.3,1.7c1.7,0.4,3.4,0.5,5.2,0.5c0.8,0,1.7-0.1,2.6-0.2s1.8-0.4,2.6-0.8s1.4-0.8,2-1.4
		c0.5-0.6,0.8-1.4,0.8-2.3c0-1.4-0.4-2.3-1.2-2.9c-0.8-0.6-2-1.1-3.4-1.6L142.6,163.6z M172.2,139c2-0.3,4-0.5,6-0.5
		c2,0,4,0.2,6,0.5v23.1c0,2.3,0.2,4.2,0.5,5.7c0.4,1.5,0.9,2.7,1.7,3.5c0.8,0.9,1.7,1.5,2.9,1.9c1.1,0.4,2.5,0.5,4,0.5
		c2.1,0,3.8-0.2,5.3-0.6V139c2-0.3,4-0.5,5.9-0.5c2,0,4,0.2,6,0.5v42c-1.8,0.6-4.2,1.2-7.1,1.8c-2.9,0.6-6,0.9-9.2,0.9
		c-2.9,0-5.6-0.2-8.3-0.7c-2.6-0.5-5-1.4-7-2.9c-2-1.4-3.6-3.6-4.7-6.4c-1.2-2.8-1.8-6.5-1.8-11.2L172.2,139L172.2,139z
		 M221.7,182.6c-0.3-2.1-0.5-4.1-0.5-6.2c0-2,0.2-4.1,0.5-6.2c2.1-0.3,4.1-0.5,6.2-0.5c2,0,4.1,0.2,6.2,0.5c0.3,2.1,0.5,4.2,0.5,6.2
		c0,2.1-0.2,4.1-0.5,6.2c-2.1,0.3-4.2,0.5-6.2,0.5C225.9,183.1,223.8,182.9,221.7,182.6z M221.4,122c2.2-0.3,4.4-0.5,6.5-0.5
		c2.2,0,4.4,0.2,6.6,0.5l-0.8,41.3c-2,0.3-3.8,0.5-5.6,0.5c-1.9,0-3.8-0.2-5.7-0.5L221.4,122z"/>
	<path id="Rim_6_" class="st1" d="M160,47.2C97.7,47.2,47.2,97.7,47.2,160S97.7,272.8,160,272.8S272.8,222.3,272.8,160
		S222.3,47.2,160,47.2z M160,261.5c-56.1,0-101.5-45.4-101.5-101.5S103.9,58.5,160,58.5S261.5,103.9,261.5,160
		S216.1,261.5,160,261.5z"/>
</g>
</svg>
