<?xml version="1.0" encoding="UTF-8"?>
<svg id="a" data-name="레이어 1" xmlns="http://www.w3.org/2000/svg" width="320" height="320" viewBox="0 0 320 320">
  <rect width="320" height="320" fill="#231f20"/>
  <path d="M91.535,85.962c18.609-17.168,43.001-26.698,68.32-26.694l-.044-.022c18.747,0,37.123,5.229,53.061,15.102,15.937,9.872,28.804,23.995,37.154,40.781,8.349,16.785,11.85,35.568,10.108,54.234-1.742,18.666-8.657,36.476-19.968,51.427-11.311,14.951-26.569,26.449-44.058,33.202-17.489,6.753-36.515,8.492-54.938,5.023-18.424-3.47-35.514-12.011-49.348-24.662-13.835-12.652-23.865-28.913-28.963-46.953l38.623,15.975c1.387,6.944,5.307,13.125,10.999,17.339,5.691,4.214,12.746,6.16,19.793,5.46,7.047-.7,13.581-3.996,18.333-9.248,4.751-5.251,7.379-12.082,7.373-19.164v-1.348l34.248-24.438h.862c7.517,.004,14.867-2.221,21.12-6.394,6.253-4.173,11.127-10.107,14.007-17.051,2.88-6.944,3.636-14.586,2.172-21.959-1.464-7.374-5.082-14.147-10.396-19.464-5.314-5.317-12.086-8.939-19.458-10.407-7.372-1.468-15.015-.717-21.96,2.159-6.946,2.876-12.883,7.747-17.059,13.997-4.177,6.25-6.406,13.599-6.406,21.116v.486l-24.018,34.822h-1.591c-5.731-.007-11.33,1.719-16.063,4.949l-54.001-22.316c2.033-25.237,13.494-48.783,32.103-65.951Zm18.671,121.101l12.373,5.104c1.911,.796,3.959,1.209,6.03,1.213,2.07,.005,4.121-.398,6.035-1.186,1.914-.788,3.654-1.945,5.122-3.405,1.467-1.461,2.632-3.196,3.428-5.106,.796-1.911,1.209-3.96,1.214-6.03,.005-2.07-.399-4.121-1.187-6.035-.788-1.914-1.945-3.654-3.405-5.122-1.461-1.467-3.196-2.632-5.106-3.428l-12.793-5.281c3.887-1.475,8.12-1.786,12.181-.895,4.061,.891,7.775,2.944,10.688,5.91,2.913,2.966,4.9,6.716,5.718,10.792,.818,4.076,.431,8.303-1.113,12.163-1.544,3.86-4.179,7.187-7.582,9.575-3.403,2.388-7.428,3.733-11.583,3.872-4.155,.139-8.261-.936-11.816-3.091-3.555-2.156-6.405-5.3-8.203-9.049Zm108.2-73.003c0-5.008-1.485-9.904-4.267-14.068-2.782-4.164-6.737-7.41-11.364-9.326-4.627-1.916-9.718-2.418-14.63-1.441-4.912,.977-9.424,3.389-12.965,6.93-3.541,3.541-5.953,8.053-6.93,12.965-.977,4.912-.475,10.003,1.441,14.63,1.916,4.627,5.162,8.581,9.326,11.364,4.164,2.783,9.06,4.268,14.068,4.268,6.714-.006,13.151-2.676,17.898-7.423,4.747-4.747,7.417-11.184,7.423-17.898Zm-44.191,0c0-3.763,1.116-7.441,3.206-10.569,2.09-3.129,5.061-5.567,8.538-7.007,3.476-1.44,7.302-1.817,10.992-1.082,3.69,.734,7.08,2.546,9.74,5.206,2.661,2.661,4.472,6.05,5.206,9.741,.734,3.69,.357,7.515-1.083,10.991-1.44,3.476-3.878,6.447-7.007,8.538-3.128,2.09-6.807,3.206-10.569,3.206-2.51,.012-4.998-.473-7.321-1.427-2.322-.953-4.433-2.356-6.212-4.128-1.778-1.772-3.189-3.878-4.15-6.197-.961-2.319-1.455-4.806-1.452-7.316l.111,.044Z" fill="#fff" fill-rule="evenodd"/>
</svg>