<?xml version="1.0" encoding="utf-8"?>
<!-- Generator: Adobe Illustrator 27.0.0, SVG Export Plug-In . SVG Version: 6.00 Build 0)  -->
<svg version="1.1" id="layer" xmlns="http://www.w3.org/2000/svg" xmlns:xlink="http://www.w3.org/1999/xlink" x="0px" y="0px"
	 viewBox="0 0 652 652" style="enable-background:new 0 0 652 652;" xml:space="preserve">
<style type="text/css">
	.st0{fill:#FFFFFF;}
</style>
<rect y="0" class="st0" width="652" height="652"/>
<path id="vrchat-logo" d="M590.8,224.4c8.5,0,16.2,3.5,21.8,9.1s9,13.4,9,21.9v127.9c0,8.5-3.5,16.3-9,21.9
	c-4.8,4.8-11.2,8.1-18.3,8.9v47.3c0,11.1-8.9,19.4-19.7,15.4c-3.8-1.4-8-4.7-12.1-10.1l-40.8-52.4H52.4c-8.5,0-16.2-3.5-21.8-9.1
	s-9-13.4-9-21.9V255.4c0-8.5,3.5-16.3,9-21.9c5.6-5.6,13.3-9.1,21.8-9.1H590.8z M590.8,236H52.4c-5.3,0-10.1,2.2-13.6,5.7
	s-5.7,8.4-5.7,13.7v127.9c0,5.3,2.2,10.2,5.7,13.7s8.3,5.7,13.6,5.7h475.2c16,20.2,31.5,40.8,47.5,61c2.5,3.4,7.8,4,7.7-2.6v-58.4
	h8.1c5.3,0,10.1-2.2,13.6-5.7s5.7-8.4,5.7-13.7V255.4c0-5.3-2.2-10.2-5.7-13.7C600.9,238.2,596.1,236,590.8,236z M561.5,259.9
	c10.9,0,19.8,9,19.8,20.1v81.5c0,11-8.9,20.1-19.8,20.1H270.8c-10.9,0-19.8-9-19.8-20.1V280c0-11,8.9-20.1,19.8-20.1H561.5z
	 M184.1,270c4.6,0,8.9,0.5,13,1.5c4,1,7.6,2.6,10.7,4.9c3.1,2.3,5.5,5.3,7.2,9c1.7,3.8,2.6,8.5,2.6,14.1c0,8.1-1.8,14.4-5.3,19
	s-7.9,7.6-13.2,9.2l18.5,34.3c0.3,0.4,0.5,0.8,0.6,1.2c0.1,0.4,0.1,0.8,0.1,1.1c0,1.1-0.4,2.3-1.1,3.5c-0.7,1.2-1.6,2.2-2.7,3.1
	c-1.1,0.9-2.3,1.6-3.7,2.2s-2.7,0.8-4,0.8s-2.5-0.4-3.6-1.1c-1.1-0.8-2-1.8-2.8-3.2l-20.1-39h-11.9v36.8c0,1.9-0.9,3.3-2.8,4.3
	c-1.9,1-4,1.5-6.4,1.5c-2.3,0-4.4-0.5-6.3-1.5c-1.9-1-2.9-2.4-2.9-4.3v-91.8c0-1.5,0.5-2.8,1.6-3.9c1.1-1.1,2.5-1.7,4.3-1.7H184.1z
	 M128.6,270c1.2,0,2.5,0.2,3.9,0.6s2.6,0.9,3.7,1.6c1.1,0.7,2.1,1.5,2.8,2.4s1.1,1.9,1.1,3c0,0.2-0.1,0.7-0.3,1.4l-26.9,88.7
	c-0.7,2.2-2.1,3.7-4.4,4.7c-2.2,1-4.7,1.5-7.4,1.5c-2.7,0-5.2-0.5-7.4-1.5c-2.2-1-3.7-2.6-4.4-4.7L62.2,279
	c-0.2-0.8-0.3-1.2-0.3-1.4c0-1.1,0.4-2.2,1.1-3.1c0.7-0.9,1.7-1.7,2.8-2.4c1.1-0.7,2.4-1.2,3.7-1.6c1.4-0.4,2.6-0.6,3.9-0.6
	c1.6,0,2.9,0.3,4,0.8c1.1,0.6,1.8,1.5,2.2,2.8l21.5,76.4l21.3-76.4c0.4-1.3,1.1-2.3,2.2-2.8C125.7,270.3,127,270,128.6,270z
	 M298.7,269.6c-4.4,0-8.5,0.6-12.4,1.8c-3.9,1.2-7.3,3-10.2,5.6c-2.9,2.5-5.2,5.8-6.9,9.9c-1.7,4.1-2.6,9.1-2.6,15l0,0v39.2
	c0,5.9,0.8,10.9,2.5,15s4,7.4,6.9,9.9s6.3,4.4,10.2,5.6c3.9,1.2,8,1.8,12.4,1.8c4.8,0,9.3-0.7,13.3-2s7.6-3.2,10.6-5.6
	s5.3-5.3,6.9-8.8s2.4-7.3,2.4-11.5c0-3.6-0.7-6-2.2-7.2s-3.8-1.8-6.9-1.8c-2.4,0-4.4,0.4-6.1,1.3c-1.7,0.8-2.6,2.3-2.8,4.5
	c-0.1,1.5-0.3,3.1-0.6,4.9c-0.3,1.7-0.9,3.4-1.9,4.9c-0.9,1.5-2.3,2.8-4.2,3.8c-1.9,1-4.4,1.5-7.5,1.5c-4.8,0-8.5-1.3-11-3.9
	s-3.8-6.7-3.8-12.2l0,0v-39.2c0-5.5,1.3-9.6,3.8-12.2s6.1-3.9,10.8-3.9c3.3,0,5.9,0.5,7.8,1.5s3.3,2.3,4.2,3.8c1,1.5,1.6,3,1.9,4.6
	c0.3,1.5,0.5,2.9,0.6,4c0.1,2.2,1,3.7,2.6,4.5c1.7,0.8,3.8,1.3,6.4,1.3c3.1,0,5.3-0.6,6.8-1.8c1.5-1.2,2.2-3.6,2.2-7.2
	c0-4-0.8-7.7-2.4-11s-3.9-6.1-6.8-8.4s-6.4-4.1-10.5-5.3C308,270.3,303.5,269.6,298.7,269.6z M403.4,269.6c-2.3,0-4.4,0.4-6.3,1.3
	c-1.9,0.9-2.8,2.3-2.8,4.3l0,0v36.7H363v-36.7c0-2-0.9-3.4-2.8-4.3c-1.9-0.9-4-1.3-6.2-1.3c-2.3,0-4.4,0.4-6.3,1.3s-2.8,2.3-2.8,4.3
	l0,0v91.4c0,1.9,0.9,3.3,2.8,4.3s3.9,1.5,6.3,1.5c2.2,0,4.3-0.5,6.2-1.5c1.9-1,2.8-2.4,2.8-4.3l0,0v-40.4h31.3v40.4
	c0,1.9,0.9,3.3,2.8,4.3s3.9,1.5,6.3,1.5c2.2,0,4.3-0.5,6.2-1.5c1.9-1,2.8-2.4,2.8-4.3l0,0v-91.4c0-2-0.9-3.4-2.8-4.3
	C407.6,270.1,405.6,269.6,403.4,269.6z M461.6,268.8c-2.6,0-5,0.5-7.2,1.5s-3.7,2.6-4.3,4.7l0,0l-26.8,88.5
	c-0.2,0.8-0.3,1.2-0.3,1.4c0,1.1,0.4,2.2,1.1,3.1s1.7,1.7,2.8,2.4c1.1,0.7,2.3,1.2,3.7,1.5c1.3,0.4,2.6,0.6,3.8,0.6
	c1.6,0,2.9-0.3,4-0.8c1.1-0.6,1.8-1.5,2.2-2.8l0,0l5.3-18.7h31.8l5.3,18.7c0.4,1.3,1.1,2.2,2.2,2.8c1.1,0.6,2.4,0.8,4,0.8
	c1.2,0,2.5-0.2,3.8-0.6s2.6-0.9,3.7-1.6s2-1.5,2.8-2.4s1.1-1.9,1.1-3c0-0.2-0.1-0.7-0.3-1.4l0,0L473.5,275c-0.6-2.2-2.1-3.7-4.3-4.7
	C466.8,269.3,464.3,268.8,461.6,268.8z M560.6,269.6h-58.8c-1.9,0-3.4,0.9-4.3,2.6s-1.4,3.6-1.4,5.6c0,2.3,0.5,4.2,1.5,5.8
	s2.4,2.5,4.2,2.5l0,0h20.4v80.6c0,1.9,0.9,3.3,2.8,4.3c1.9,1,3.9,1.5,6.3,1.5c2.2,0,4.3-0.5,6.2-1.5s2.8-2.4,2.8-4.3l0,0v-80.6h20.3
	c1.8,0,3.3-0.8,4.2-2.5c1-1.7,1.5-3.6,1.5-5.8c0-2-0.5-3.8-1.4-5.6C564,270.5,562.5,269.6,560.6,269.6L560.6,269.6z M461.6,292.6
	l12.1,43.2h-24.2L461.6,292.6z M184.1,286.1h-15.5v30.1h15.5h1.2c4-0.2,7.3-1.3,9.8-3.3c2.7-2.2,4.1-6.1,4.1-11.6
	c0-5.6-1.4-9.5-4.1-11.7C192.4,287.2,188.7,286.1,184.1,286.1L184.1,286.1z"/>
</svg>
