<?xml version="1.0" encoding="utf-8"?>
<!-- Generator: Adobe Illustrator 27.5.0, SVG Export Plug-In . SVG Version: 6.00 Build 0)  -->
<svg version="1.1" id="a" xmlns="http://www.w3.org/2000/svg" xmlns:xlink="http://www.w3.org/1999/xlink" x="0px" y="0px"
	 viewBox="0 0 128 128" style="enable-background:new 0 0 128 128;" xml:space="preserve">
<style type="text/css">
	.st0{fill:#19191E;}
	.st1{fill:#F35B5A;}
	.st2{fill:#0F80DA;}
	.st3{fill:#D89112;}
	.st4{fill:#45A50E;}
	.st5{fill:#C6C6C6;}
</style>
<rect class="st0" width="128" height="128"/>
<g>
	<g>
		<g>
			<rect x="58.6" y="31.4" class="st1" width="10.7" height="66.1"/>
		</g>
		<g>
			<rect x="62.4" y="30.7" class="st1" width="3.2" height="78.4"/>
		</g>
	</g>
	<g>
		<g>
			<rect x="72.1" y="26.8" class="st2" width="10.7" height="21.9"/>
		</g>
		<g>
			<rect x="75.8" y="23.4" class="st2" width="3.2" height="60.4"/>
		</g>
	</g>
	<g>
		<g>
			<rect x="45.2" y="72.1" class="st2" width="10.7" height="21.9"/>
		</g>
		<g>
			<rect x="49" y="18.9" class="st2" width="3.2" height="71.3"/>
		</g>
	</g>
</g>
<g>
	<g>
		<path class="st3" d="M64,100.8c-0.6,0-1.3-0.3-1.6-0.9L22.1,42c-0.6-0.9-0.4-2.1,0.5-2.8c0.9-0.6,2.1-0.4,2.8,0.5l38.1,54.8
			l12.1-32.2c0.2-0.5,0.6-0.9,1.1-1.1c0.5-0.2,1.1-0.2,1.6,0L105,72.9c1,0.4,1.5,1.6,1,2.6c-0.4,1-1.6,1.5-2.6,1L78.5,65.7
			L65.9,99.5c-0.3,0.7-0.9,1.2-1.6,1.3C64.2,100.8,64.1,100.8,64,100.8z"/>
	</g>
	<g>
		<path class="st4" d="M50.6,89.2c-0.2,0-0.5,0-0.7-0.1L23,78.3c-1-0.4-1.5-1.6-1.1-2.6c0.4-1,1.6-1.5,2.6-1.1l26,10.4l25.9-14.6
			c0.4-0.2,0.9-0.3,1.4-0.2l26.9,5.6c1.1,0.2,1.8,1.3,1.5,2.3c-0.2,1.1-1.3,1.8-2.3,1.5l-26.1-5.5L51.6,88.9
			C51.3,89.1,50.9,89.2,50.6,89.2z"/>
	</g>
	<g>
		<path class="st5" d="M104.2,63.7c-0.2,0-0.4,0-0.6-0.1L77.2,55l-26.4,2.3c-0.2,0-0.3,0-0.5,0l-26.9-4.5c-1.1-0.2-1.8-1.2-1.6-2.3
			c0.2-1.1,1.2-1.8,2.3-1.6l26.6,4.5L77.2,51c0.3,0,0.5,0,0.8,0.1l26.9,8.7c1,0.3,1.6,1.5,1.3,2.5C105.9,63.2,105.1,63.7,104.2,63.7
			z"/>
	</g>
</g>
</svg>
