<?xml version="1.0" encoding="UTF-8" standalone="no"?><!DOCTYPE svg PUBLIC "-//W3C//DTD SVG 1.1//EN" "http://www.w3.org/Graphics/SVG/1.1/DTD/svg11.dtd"><svg width="100%" height="100%" viewBox="0 0 512 512" version="1.1" xmlns="http://www.w3.org/2000/svg" xmlns:xlink="http://www.w3.org/1999/xlink" xml:space="preserve" xmlns:serif="http://www.serif.com/" style="fill-rule:evenodd;clip-rule:evenodd;stroke-linejoin:round;stroke-miterlimit:2;"><rect x="0" y="0" width="512" height="512" style="fill:#fff;"/><path d="M262.563,245.654c-9.767,4.181 -20.852,8.922 -35.217,8.922c-6.01,-0.012 -11.99,-0.837 -17.779,-2.451l9.935,102.008c0.352,4.265 2.294,8.241 5.441,11.139c3.147,2.898 7.269,4.506 11.547,4.503c0,0 14.088,0.733 18.788,0.733c5.059,0 20.23,-0.733 20.23,-0.733c4.277,0 8.399,-1.608 11.545,-4.506c3.146,-2.898 5.088,-6.871 5.44,-11.136l10.642,-112.722c-4.756,-1.624 -9.555,-2.703 -14.966,-2.703c-9.358,-0.004 -16.897,3.219 -25.607,6.947Z" style="fill:#fd0;fill-rule:nonzero;"/><path d="M349.081,192.718l-1.496,-7.547c-1.343,-6.771 -4.39,-13.17 -11.34,-15.617c-2.228,-0.783 -4.756,-1.119 -6.464,-2.74c-1.708,-1.621 -2.213,-4.137 -2.608,-6.471c-0.732,-4.284 -1.419,-8.571 -2.169,-12.848c-0.647,-3.676 -1.16,-7.807 -2.846,-11.179c-2.195,-4.529 -6.749,-7.177 -11.278,-8.929c-2.321,-0.866 -4.689,-1.599 -7.093,-2.195c-11.315,-2.985 -23.211,-4.082 -34.852,-4.708c-13.972,-0.771 -27.981,-0.538 -41.919,0.695c-10.374,0.944 -21.301,2.085 -31.16,5.674c-3.603,1.313 -7.316,2.89 -10.056,5.674c-3.362,3.42 -4.459,8.71 -2.005,12.975c1.745,3.029 4.701,5.169 7.836,6.585c4.083,1.824 8.348,3.212 12.723,4.141c12.182,2.692 24.799,3.75 37.244,4.199c13.794,0.557 27.609,0.106 41.337,-1.35c3.395,-0.373 6.783,-0.821 10.166,-1.343c3.984,-0.611 6.541,-5.82 5.367,-9.449c-1.405,-4.339 -5.18,-6.021 -9.449,-5.366c-0.629,0.099 -1.255,0.19 -1.884,0.281l-0.454,0.066c-1.446,0.183 -2.892,0.354 -4.339,0.512c-2.988,0.322 -5.982,0.585 -8.984,0.79c-6.724,0.468 -13.466,0.684 -20.204,0.695c-6.621,0 -13.246,-0.187 -19.853,-0.622c-3.014,-0.198 -6.021,-0.449 -9.021,-0.754c-1.364,-0.143 -2.725,-0.292 -4.086,-0.461l-1.295,-0.165l-0.281,-0.04l-1.343,-0.194c-2.744,-0.413 -5.487,-0.889 -8.202,-1.463c-0.274,-0.061 -0.519,-0.213 -0.695,-0.432c-0.175,-0.219 -0.271,-0.491 -0.271,-0.772c0,-0.281 0.096,-0.553 0.271,-0.772c0.176,-0.219 0.421,-0.371 0.695,-0.432l0.051,0c2.352,-0.501 4.723,-0.929 7.101,-1.302c0.793,-0.124 1.587,-0.246 2.385,-0.366l0.022,0c1.489,-0.099 2.985,-0.366 4.467,-0.541c12.89,-1.341 25.857,-1.798 38.809,-1.368c6.288,0.183 12.573,0.552 18.832,1.189c1.346,0.139 2.685,0.285 4.024,0.45c0.512,0.062 1.028,0.136 1.544,0.198l1.039,0.15c3.029,0.451 6.042,0.999 9.039,1.643c4.441,0.966 10.144,1.28 12.119,6.146c0.629,1.544 0.915,3.259 1.262,4.88l0.443,2.067c0.012,0.037 0.02,0.075 0.026,0.113c1.046,4.878 2.094,9.755 3.142,14.633c0.077,0.36 0.079,0.733 0.005,1.094c-0.074,0.361 -0.22,0.703 -0.432,1.005c-0.211,0.302 -0.483,0.557 -0.797,0.749c-0.314,0.192 -0.665,0.317 -1.03,0.368l-0.029,0l-0.64,0.088l-0.633,0.084c-2.005,0.261 -4.012,0.505 -6.021,0.731c-3.958,0.451 -7.922,0.841 -11.893,1.171c-7.889,0.656 -15.795,1.086 -23.716,1.291c-4.036,0.108 -8.071,0.157 -12.105,0.15c-16.056,-0.013 -32.098,-0.946 -48.047,-2.795c-1.727,-0.205 -3.453,-0.424 -5.18,-0.647c1.339,0.172 -0.973,-0.132 -1.441,-0.197c-1.098,-0.154 -2.195,-0.314 -3.292,-0.479c-3.684,-0.552 -7.346,-1.233 -11.022,-1.829c-4.445,-0.731 -8.695,-0.366 -12.716,1.829c-3.3,1.806 -5.971,4.575 -7.657,7.938c-1.734,3.585 -2.25,7.488 -3.025,11.34c-0.776,3.852 -1.983,7.997 -1.525,11.951c0.984,8.535 6.951,15.471 15.533,17.022c8.074,1.463 16.191,2.648 24.33,3.658c31.974,3.916 64.275,4.384 96.349,1.397c2.612,-0.244 5.22,-0.51 7.825,-0.798c0.813,-0.089 1.637,0.004 2.409,0.275c0.773,0.27 1.475,0.709 2.056,1.286c0.581,0.577 1.025,1.276 1.301,2.046c0.275,0.771 0.375,1.593 0.292,2.407l-0.812,7.894c-1.636,15.952 -3.273,31.903 -4.909,47.853c-1.707,16.75 -3.425,33.498 -5.155,50.245c-0.488,4.716 -0.975,9.431 -1.463,14.146c-0.468,4.643 -0.534,9.432 -1.416,14.019c-1.39,7.214 -6.274,11.642 -13.4,13.263c-6.529,1.486 -13.198,2.267 -19.893,2.329c-7.423,0.039 -14.841,-0.289 -22.264,-0.25c-7.924,0.045 -17.629,-0.688 -23.745,-6.585c-5.374,-5.179 -6.116,-13.289 -6.848,-20.303c-0.975,-9.283 -1.942,-18.567 -2.901,-27.849l-5.377,-51.613l-3.479,-33.395c-0.059,-0.552 -0.117,-1.098 -0.172,-1.654c-0.417,-3.984 -3.238,-7.883 -7.682,-7.682c-3.804,0.168 -8.128,3.402 -7.682,7.682l2.579,24.759l5.334,51.214c1.519,14.547 3.035,29.096 4.547,43.648c0.293,2.788 0.567,5.584 0.874,8.372c1.672,15.231 13.305,23.439 27.711,25.754c8.414,1.352 17.032,1.629 25.57,1.769c10.945,0.176 22,0.596 32.766,-1.388c15.953,-2.925 27.923,-13.578 29.631,-30.102c0.488,-4.771 0.975,-9.543 1.463,-14.314c1.622,-15.784 3.241,-31.569 4.858,-47.355l5.29,-51.581l2.425,-23.639c0.121,-1.172 0.616,-2.274 1.412,-3.143c0.796,-0.869 1.85,-1.458 3.008,-1.682c4.562,-0.889 8.922,-2.407 12.167,-5.879c5.165,-5.527 6.193,-12.734 4.368,-19.999Zm-171.601,5.099c0.07,-0.033 -0.059,0.564 -0.113,0.841c-0.011,-0.421 0.011,-0.794 0.113,-0.841Zm0.443,3.424c0.037,-0.026 0.146,0.121 0.26,0.296c-0.172,-0.161 -0.282,-0.281 -0.263,-0.296l0.004,0Zm0.435,0.574c0.157,0.267 0.241,0.435 0,0Zm0.871,0.71l0.026,0c0,0.026 0.04,0.051 0.055,0.077c-0.024,-0.028 -0.051,-0.054 -0.08,-0.077Zm153.105,-1.061c-1.639,1.558 -4.108,2.283 -6.548,2.645c-27.363,4.061 -55.125,6.117 -82.788,5.209c-19.798,-0.677 -39.388,-2.876 -58.988,-5.645c-1.921,-0.271 -4.002,-0.622 -5.323,-2.038c-2.488,-2.67 -1.266,-8.048 -0.618,-11.274c0.593,-2.956 1.727,-6.896 5.242,-7.316c5.487,-0.644 11.86,1.672 17.289,2.495c6.536,0.997 13.096,1.796 19.681,2.396c28.102,2.56 56.676,2.162 84.654,-1.584c5.099,-0.685 10.181,-1.481 15.244,-2.389c4.511,-0.809 9.511,-2.327 12.237,2.345c1.869,3.183 2.118,7.441 1.829,11.037c-0.089,1.567 -0.773,3.04 -1.913,4.119l0.004,0Z" style="fill:#0d0c22;fill-rule:nonzero;"/></svg>