<?xml version="1.0" encoding="utf-8"?>
<!-- Generator: Adobe Illustrator 27.8.1, SVG Export Plug-In . SVG Version: 6.00 Build 0)  -->
<svg version="1.1" id="레이어_1" xmlns="http://www.w3.org/2000/svg" xmlns:xlink="http://www.w3.org/1999/xlink" x="0px"
	 y="0px" viewBox="0 0 320 320" style="enable-background:new 0 0 320 320;" xml:space="preserve">
<style type="text/css">
	.st0{fill:#FFFFFF;}
	.st1{fill:#FFCE00;}
	.st2{fill:#16BF9F;}
	.st3{fill:#4A4AA5;}
	.st4{fill:#BD2DE0;}
	.st5{fill:#FF99DD;}
	.st6{fill:#C92828;}
	.st7{fill:#FF0000;}
</style>
<g>
	<rect class="st0" width="320" height="320"/>
</g>
<g>
	<g>
		<path class="st1" d="M74,98.5c5.8-7.5,12.5-14.3,20-20c7.5-5.7,15.7-10.5,24.5-14.2c8.7-3.6,17.8-6.1,27.4-7.3
			c9.2-1.2,18.7-1.2,28.3,0s18.8,3.8,27.4,7.3c8.9,3.7,17.1,8.5,24.5,14.2l-66,86L74,98.5z"/>
	</g>
	<g>
		<path class="st2" d="M160,164.6l66-86c7.5,5.8,14.3,12.5,20,20c5.7,7.5,10.5,15.7,14.2,24.5L160,164.6z"/>
	</g>
	<g>
		<path class="st3" d="M160,164.6l100.2-41.5c3.6,8.7,6.1,17.8,7.3,27.4L160,164.6z"/>
	</g>
	<g>
		<path class="st4" d="M160,164.6l107.5-14.1c1.2,9.2,1.2,18.7,0,28.3c-1.3,9.6-3.8,18.8-7.3,27.4c-3.7,8.9-8.5,17.1-14.2,24.5
			c-5.8,7.5-12.5,14.3-20,20c-7.5,5.7-15.7,10.5-24.5,14.2c-8.7,3.6-17.8,6.1-27.4,7.3L160,164.6z"/>
	</g>
	<g>
		<path class="st5" d="M145.8,272.1L160,164.6l14.1,107.5C164.9,273.3,155.4,273.3,145.8,272.1z"/>
	</g>
	<g>
		<path class="st6" d="M52.5,150.4c1.3-9.6,3.8-18.8,7.3-27.4c3.7-8.9,8.5-17.1,14.2-24.5l86,66l-14.2,107.5
			c-9.6-1.3-18.8-3.8-27.4-7.3c-8.9-3.7-17.1-8.5-24.5-14.2c-7.5-5.8-14.3-12.5-20-20c-5.7-7.5-10.5-15.7-14.2-24.5
			c-3.6-8.7-6.1-17.8-7.3-27.4C51.2,169.5,51.2,160,52.5,150.4z"/>
	</g>
	<polygon class="st7" points="155,46.3 165,46.3 160,68 	"/>
</g>
</svg>
