<?xml version="1.0" encoding="UTF-8"?>
<svg id="a" data-name="레이어 1" xmlns="http://www.w3.org/2000/svg" width="512" height="512" viewBox="0 0 512 512">
  <rect x="0" y="-.131" width="512" height="512" fill="#b30202" stroke-width="0"/>
  <g>
    <path d="m95.483,263.338h-58.835v-14.676h58.835v14.676Z" fill="#f7f7f9" stroke-width="0"/>
    <path d="m138.33,316.8c-6.989-5.415-12.34-13.268-16.052-23.554-3.713-10.286-5.569-22.702-5.569-37.247,0-14.414,1.856-26.797,5.569-37.148,3.712-10.352,9.084-18.236,16.117-23.652,7.032-5.416,15.44-8.124,25.225-8.124s18.192,2.708,25.225,8.124c7.032,5.417,12.404,13.3,16.118,23.652,3.712,10.352,5.569,22.734,5.569,37.148,0,14.545-1.834,26.961-5.503,37.247s-9.02,18.139-16.052,23.554c-7.033,5.417-15.484,8.125-25.355,8.125s-18.302-2.708-25.29-8.125Zm41.866-12.973c4.586-4.192,8.08-10.34,10.483-18.443,2.402-8.102,3.604-17.896,3.604-29.385s-1.202-21.304-3.604-29.45c-2.403-8.146-5.908-14.337-10.516-18.575-4.609-4.236-10.123-6.355-16.543-6.355s-11.914,2.119-16.478,6.355c-4.565,4.237-8.07,10.429-10.516,18.575-2.447,8.146-3.669,17.963-3.669,29.45s1.201,21.283,3.604,29.385c2.402,8.104,5.897,14.251,10.483,18.443,4.586,4.193,10.111,6.29,16.576,6.29s11.99-2.097,16.576-6.29Z" fill="#f7f7f9" stroke-width="0"/>
    <path d="m233.493,322.5c-1.857-1.091-3.32-2.544-4.39-4.356-1.071-1.812-1.583-3.789-1.54-5.93-.044-2.14.469-4.138,1.54-5.995,1.07-1.855,2.533-3.309,4.39-4.356,1.856-1.049,3.854-1.573,5.995-1.573s4.138.524,5.995,1.573c1.856,1.048,3.309,2.501,4.357,4.356,1.048,1.857,1.573,3.855,1.573,5.995s-.524,4.117-1.573,5.93-2.501,3.266-4.357,4.356c-1.857,1.092-3.855,1.638-5.995,1.638s-4.139-.546-5.995-1.638Z" fill="#f7f7f9" stroke-width="0"/>
    <path d="m293.869,320.469c-6.989-2.97-12.504-7.142-16.544-12.514s-6.214-11.553-6.519-18.542h16.903c.306,4.15,1.802,7.787,4.488,10.909,2.687,3.123,6.213,5.536,10.581,7.24,4.367,1.703,9.216,2.555,14.545,2.555,5.853,0,11.095-1.004,15.725-3.014,4.629-2.009,8.255-4.793,10.876-8.354,2.621-3.56,3.931-7.633,3.931-12.22,0-4.891-1.267-9.215-3.8-12.973-2.533-3.756-6.257-6.683-11.171-8.779-4.914-2.097-10.8-3.145-17.657-3.145h-10.876v-14.676h10.876c5.416,0,10.242-.96,14.479-2.883,4.236-1.921,7.513-4.619,9.828-8.091,2.314-3.473,3.473-7.502,3.473-12.088,0-4.412-1.027-8.31-3.079-11.695-2.054-3.384-4.979-5.995-8.78-7.83-3.8-1.834-8.233-2.751-13.3-2.751-4.806,0-9.304.852-13.497,2.555s-7.611,4.139-10.253,7.305c-2.644,3.167-4.074,6.869-4.292,11.105h-16.117c.262-6.901,2.401-13.06,6.421-18.476,4.018-5.416,9.369-9.609,16.052-12.58,6.683-2.97,13.998-4.455,21.948-4.455,8.256,0,15.495,1.638,21.72,4.914,6.224,3.276,11.007,7.666,14.349,13.169,3.341,5.503,4.989,11.488,4.946,17.952.043,4.979-.842,9.523-2.653,13.628-1.813,4.106-4.455,7.579-7.928,10.417-3.473,2.84-7.546,4.914-12.219,6.224v1.048c5.765.874,10.766,2.752,15.003,5.635,4.236,2.883,7.458,6.617,9.664,11.203,2.205,4.587,3.286,9.72,3.243,15.397.043,7.207-1.955,13.726-5.995,19.557s-9.631,10.407-16.772,13.727c-7.142,3.318-15.102,4.979-23.881,4.979-8.824,0-16.73-1.486-23.718-4.456Z" fill="#f7f7f9" stroke-width="0"/>
    <path d="m388.082,310.904l45.731-48.221c6.028-6.421,10.636-11.585,13.825-15.495,3.188-3.909,5.602-7.687,7.239-11.334,1.638-3.646,2.479-7.458,2.522-11.433-.044-4.542-1.234-8.539-3.57-11.99-2.338-3.45-5.526-6.115-9.566-7.993-4.04-1.877-8.572-2.817-13.595-2.817-5.241,0-9.827,1.048-13.759,3.145-3.931,2.096-6.968,5.045-9.106,8.845-2.141,3.8-3.211,8.19-3.211,13.169h-15.855c-.044-7.774,1.779-14.676,5.471-20.704,3.69-6.027,8.769-10.701,15.233-14.021,6.464-3.319,13.715-4.979,21.752-4.979,7.949,0,15.112,1.638,21.49,4.914,6.376,3.276,11.345,7.764,14.905,13.464,3.56,5.7,5.361,12.023,5.405,18.968-.044,5.11-.994,9.992-2.851,14.643-1.856,4.652-4.979,9.818-9.369,15.495-4.39,5.679-10.625,12.667-18.705,20.966l-30.663,31.711v1.049h63.946v14.807h-87.14l-.131-12.187Z" fill="#f7f7f9" stroke-width="0"/>
  </g>
</svg>