<?xml version="1.0" encoding="UTF-8"?>
<svg id="_레이어_1" data-name="레이어 1" xmlns="http://www.w3.org/2000/svg" viewBox="0 0 512 512">
  <defs>
    <style>
      .cls-1 {
        fill: #422b0d;
      }

      .cls-2 {
        fill: #767e3a;
      }

      .cls-3 {
        fill: #fee165;
      }

      .cls-4 {
        fill: #fe6110;
      }

      .cls-5 {
        fill: #5c6a23;
      }

      .cls-6 {
        fill: #fe8d00;
      }

      .cls-7 {
        fill: #fdfdfd;
      }

      .cls-8 {
        fill: #2c2c2c;
      }

      .cls-9 {
        fill: #efe6da;
      }

      .cls-10 {
        fill: #eae2d7;
      }

      .cls-11 {
        fill: #f8e7d1;
      }

      .cls-12 {
        fill: #fefefe;
      }
    </style>
  </defs>
  <rect class="cls-8" x="0" y="0" width="512" height="512"/>
  <g>
    <path class="cls-6" d="M323.54,182.94c8.92,4.09,17.7,8.43,25.73,14.16,24.74,17.65,38.73,41.64,42.17,71.77,2.34,20.51,.32,40.59-7.76,59.67-5.87,13.86-15.71,24.98-27.04,34.7-17.23,14.79-37.47,23.28-59.62,27.27-33.68,6.07-67.09,4.68-99.96-5.12-16.74-4.99-31.91-13.01-44.91-24.84-15.04-13.69-24.65-30.65-29.81-50.18-10.49-39.7,.2-74.05,27.29-103.72,18.21-19.94,41.77-30.33,67.94-35.29,10.77-2.04,21.66-2.8,32.61-2.73,2.74,3.03,1.64,7.34-2.18,8.57-9.79,3.16-13.01,13.17-6.52,20.66,3.39,3.91,8.11,5.28,13.06,5.72,3.18,.28,6.42,.4,9.58-.51,5.45-1.58,8.95-5.14,9.96-10.66,1.01-5.56-1.46-9.81-6.05-12.9-4.01-2.7-4.03-2.72-3.14-5.89,1.16-.63,1.95,.21,2.69,.79,7.51,6.03,16.09,9.44,25.59,10.69,.73,.1,1.44,.29,2.14,.52,.31,.2,0-.17,.25,.1,3.57,4.05,7.16,8.07,10.61,12.22-.14,.68-.64,1.1-1.16,1.47-3.03,2.19-3.31,5.3-2.77,8.61,.44,2.71,2.11,4.29,4.45,4.48,2.36,.19,4.19-1.1,5.24-3.6,.78-1.85,.51-4,1.67-5.74,1.29-.55,2.31,.26,3.37,.72,5.88,2.53,11.98,4.05,18.4,4.23,.73,.02,1.47,.03,2.2-.11,1.37-.26,2.4-.93,2.73-2.37,.31-1.37-.11-2.54-1.15-3.47-1.08-.97-2.43-1.24-3.78-1.52-9.42-1.95-17.91-5.94-25.46-11.88-.84-.66-2.21-1.17-1.68-2.74,4.61-1.43,9.44-1.98,14.06-3.41,.44-.14,.9,0,1.26,.34Z"/>
    <path class="cls-5" d="M265.14,173.61c-.51,2.25,.32,3.53,2.39,4.74,6,3.48,8.67,9.3,7.29,14.93-1.54,6.3-7.18,10.83-14.02,11.2-5.55,.3-11-.14-15.98-2.94-5.47-3.07-7.75-7.91-7.25-13.99,.48-5.84,4.28-9.06,9.5-10.88,3.93-1.36,3.95-1.34,3.61-5.64-.06-.81-.32-1.6-.49-2.4-.86-9.11-3.23-17.63-9.42-24.71-1.09-1.24-2.21-2.47-3.15-3.82-1.7-2.43-1.51-4.44,.98-5.84,6.03-3.4,12.66-4.28,19.42-3.43,2.78,.35,4.16,2.79,5.01,5.35,2.02,6.09,2.17,12.42,2.53,18.73,.03,.54,0,1.08,.42,1.77,1.01-1.98,2.06-3.95,3.04-5.95,8.24-16.93,21.95-27.04,40.03-31.08,16.41-3.67,32.64-2.14,48.42,3.65,4.75,1.74,9.24,4.05,12.81,7.81,.75,.8,1.57,1.54,1.85,2.67-.21,1.89-1.88,1.76-3.09,2.07-10.14,2.59-20.28,5.2-30.4,7.87-25.79,6.81-50.48,16.27-73.49,29.88Z"/>
    <path class="cls-2" d="M265.14,173.61c.15-1.77,1.87-1.95,2.93-2.56,13.22-7.55,27.06-13.76,41.35-19.01,19.58-7.19,39.89-11.85,60.04-17.04,.98-.25,1.99-.34,2.66-1.22,.66,.61,.2,1.19-.08,1.73-9.15,17.57-21.17,32.58-38.59,42.66-3.16,1.83-6.6,3.19-9.9,4.76-5.01,1.42-10.03,2.83-15.25,3.34-1.37,.46-1.94-.71-2.7-1.39-1.23-1.1-2.33-2.34-3.53-3.47-1.1-1.04-2.3-1.99-3.91-1.18-1.57,.79-2.6,2.02-2.39,3.95,.07,.63,.24,1.28-.25,1.83-10.34-.87-19.71-4.26-27.9-10.73-.78-.61-1.64-1.12-2.47-1.67Z"/>
    <path class="cls-1" d="M277.12,231.4c4.35-5.16,9.51-9.24,15.91-11.51,10.72-3.79,21.03-2.81,30.86,2.98,1.93,1.14,3.97,2.11,5.66,3.62,15.91,13.21,15.76,38.81,1,52.72-6.69,6.31-14.63,9.74-24.12,9.91-9.53,.17-17.79-2.58-24.86-8.73-7.63-6.64-11.75-15.16-12.25-25.33-.38-7.66,1.34-14.78,5.66-21.19,.59-.92,1.29-1.75,2.13-2.47Z"/>
    <path class="cls-1" d="M177.87,231.93c2.6-2.24,4.55-5.09,7.37-7.17,11.74-8.67,27.42-9.53,39.84-1.85,1.3,.8,2.87,1.21,3.87,2.48,1.3,.32,2.07,1.38,3.02,2.18,14.06,13.98,14.56,36.46,.79,50.65-7.2,7.42-16.11,11.06-26.73,10.88-12.38-.22-21.97-5.33-29.08-15.16-8.33-11.51-8.69-28.23-1.19-39.48,.59-.93,1.33-1.74,2.1-2.52Z"/>
    <path class="cls-3" d="M204.96,196.07c1.28,2.06,.33,3.87-.73,5.58-1.99,3.21-5.1,5.3-8.12,7.32-19.57,13.1-31.96,31.67-40.75,53.03-1.81,4.41-3.19,8.99-5.43,13.22-1.34,2.53-2.99,4.94-6.19,4.65-3.2-.3-5.14-2.56-6.33-5.47-2.35-5.73-2.22-11.68-1.2-17.58,3.45-20.11,12.32-37.53,26.82-51.9,6.48-6.43,13.85-11.72,22.71-14.61,3.64-1.19,7.33-1.57,11.12-1.23-.04,1.44-1.2,2-2.17,2.63-6.46,4.19-13.4,7.25-20.96,8.84-.9,.19-1.82,.3-2.67,.67-1.74,.78-2.98,1.99-2.61,4.04,.34,1.9,1.79,2.7,3.61,2.81,4.27,.25,8.43-.47,12.52-1.58,6.38-1.73,12.15-4.69,17.29-8.86,.89-.72,1.72-1.72,3.09-1.56Z"/>
    <path class="cls-12" d="M275.6,233.7c-7.46,12.83-7.91,25.76-.06,38.52,8.22,13.36,24.67,19.4,39.84,14.97,15.12-4.41,25.31-18.08,25.4-33.82,.05-9.78-3.33-18.09-10.11-25.07-.51-.53-1.06-1.01-1.12-1.81,1.05-.25,1.45,.87,2.3,1.06,4.73,2.59,7.66,6.65,9.51,11.61,5.96,11.96,6.62,24.1,.98,36.33-7.08,15.35-24.44,24.87-40.87,22.58-18.08-2.52-32.04-15.73-34.79-33.02-1.88-11.85,.68-22.57,8.37-31.93,.51-.11,.79,0,.56,.59Z"/>
    <path class="cls-12" d="M176.36,234.32c-6.63,11.93-7.43,24.13-.64,36.13,7.26,12.83,18.74,18.96,33.39,17.97,14.33-.97,24.71-8.51,30.17-21.75,5.49-13.33,3.17-25.84-6.07-36.98-.58-.7-1.17-1.39-1.76-2.09-.16-.53,.05-.7,.56-.57,12.94,10.61,17.87,24.31,14.19,40.47-3.55,15.55-13.68,25.71-29.15,29.47-22.21,5.4-43.07-7.25-48.56-29.09-3.13-12.45-.71-24.01,7.29-34.24,.51-.06,.8,.09,.6,.67Z"/>
    <path class="cls-1" d="M254.7,318.99c6.95-.28,13.71,1.22,20.19,4.06,5.09,2.24,7.29,7.37,5.29,12.24-1.99,4.84-7.18,7.02-12.36,4.86-9.05-3.78-17.98-3.69-27.01,.06-4.98,2.06-10.23-.2-12.16-4.92-1.96-4.8,.07-9.98,5.01-12.15,6.64-2.92,13.61-4.37,21.04-4.15Z"/>
    <path class="cls-1" d="M204.96,196.07c-7.86,6.83-16.78,11.36-27.25,12.49-1.91,.21-3.84,.21-5.76,.28-2.33,.08-3.9-.98-4.4-3.29-.47-2.15,.91-4.43,3.19-5.1,2.19-.65,4.48-.94,6.66-1.59,7.06-2.09,13.76-4.95,19.45-9.77,3.13-1.8,5.56-4.42,8.07-6.95,.77-.78,1.49-1.71,2.43-2.19,1.75-.89,3.57-.78,5.1,.61,1.57,1.42,1.73,3.16,.79,4.99-2.08,4.04-5.15,7.3-8.28,10.52Z"/>
    <path class="cls-1" d="M295.51,186.01c0-1.09-.79-2.03-.53-3.19,.75-3.37,4.6-4.66,7.18-2.33,2.08,1.88,3.74,4.22,6.14,5.78,7.93,7.37,17.38,11.63,27.9,13.73,1.17,.23,2.33,.42,3.32,1.18,1.66,1.28,2.14,3.01,1.61,4.9-.53,1.88-2.02,2.71-3.97,2.75-7.27,.17-14.15-1.45-20.74-4.46-.91-.42-1.83-.82-2.75-1.22-3.12-.96-5.8-2.57-7.75-5.26-4.02-3.48-7.44-7.48-10.41-11.88Z"/>
    <path class="cls-4" d="M361.07,271.18c-.48,5.46-1.95,10.04-6.67,11.55-3.23,1.04-6.11,.45-8.02-2.32-3.81-5.53-1.25-14.83,4.45-17.31,5.46-2.38,10.24,1.46,10.23,8.08Z"/>
    <path class="cls-4" d="M269.3,373.22c-3.15,.3-5.62-.88-6.92-4.02-1.31-3.18,.04-5.63,2.19-7.92,2.51-2.67,5.3-4.36,9.16-4.13,2.62,.16,5.13,.51,6.29,3.05,1.21,2.64,.94,5.5-.84,7.84-2.41,3.17-5.41,5.51-9.89,5.18Z"/>
    <path class="cls-4" d="M336.99,341.77c-4.47-.05-7.06-3.72-5.85-8.09,1.33-4.78,4.31-7.73,9.15-8.8,3.67-.81,7.42,2.2,7.52,6.02,.14,5.19-5.58,10.93-10.82,10.87Z"/>
    <path class="cls-4" d="M353.88,243.17c-.1-2.92,.75-5.38,3.3-7.09,2.8-1.87,5.51-1.77,8.05,.38,3.57,3.02,3.32,10.87-.5,13.52-2.26,1.56-4.73,1.97-7.27,.63-3.01-1.59-3.65-4.35-3.58-7.44Z"/>
    <path class="cls-4" d="M341.36,239.15c-2.61-4.33-5.77-8.2-9.51-11.61,2.54-5.4,9.35-6.45,13.08-2.02,2.11,2.51,1.73,8.22-.78,10.98-.86,.95-1.85,1.77-2.79,2.65Z"/>
    <path class="cls-4" d="M305.92,197.89c2.58,1.75,5.17,3.51,7.75,5.26-.12,2.38-.38,4.73-1.47,6.91-1.28,2.56-3.38,3.55-6.12,3.16-2.6-.38-4.06-2.21-4.48-4.59-.86-4.78-.31-7.9,4.32-10.74Z"/>
    <path class="cls-11" d="M232,227.04c-.19,.19-.37,.38-.56,.57-1-.54-1.82-1.29-2.49-2.21,1.54-.42,2.19,.8,3.05,1.64Z"/>
    <path class="cls-10" d="M176.36,234.32c-.2-.22-.4-.45-.6-.67,.48-.85,.88-1.79,2.11-1.72-.16,1.01-.8,1.72-1.51,2.39Z"/>
    <path class="cls-9" d="M275.6,233.7c-.19-.2-.37-.4-.56-.59,.47-.84,.86-1.78,2.07-1.71-.25,.94-.81,1.67-1.52,2.3Z"/>
    <path class="cls-12" d="M276.78,245.69c0-9.6,8.54-19.35,18.71-21.38,3.97-.79,7.85-.72,11.61,.91,5.98,2.59,9.42,8.75,8.49,15.19-1.92,13.37-16.3,23.08-28.54,19.26-6.5-2.03-10.26-7.15-10.27-13.98Z"/>
    <path class="cls-7" d="M318.54,260.67c3.13,.01,5.49,2.32,5.47,5.35-.02,3.31-3.11,6.23-6.51,6.16-3.12-.07-5.33-2.39-5.25-5.51,.08-3.33,2.89-6.01,6.29-6Z"/>
    <path class="cls-12" d="M193.72,260.42c-11.7,.02-18.52-9.52-14.74-20.61,3.12-9.17,12.6-16.02,22.24-16.07,11.48-.06,18.38,9.79,14.61,20.86-3.06,8.98-12.6,15.82-22.11,15.83Z"/>
    <path class="cls-7" d="M224.9,265.97c.06,3.44-2.74,6.28-6.2,6.3-3.2,.02-5.39-2.08-5.45-5.21-.06-3.42,2.75-6.31,6.18-6.35,3.06-.04,5.42,2.23,5.47,5.26Z"/>
  </g>
</svg>