<?xml version="1.0" encoding="UTF-8"?>
<svg id="_레이어_1" data-name="레이어 1" xmlns="http://www.w3.org/2000/svg" version="1.1" viewBox="0 0 320 320">
  <defs>
    <style>
      .cls-1 {
        fill: #0270fe;
      }

      .cls-1, .cls-2 {
        stroke-width: 0px;
      }

      .cls-2 {
        fill: #fff;
      }
    </style>
  </defs>
  <rect class="cls-1" width="320" height="320"/>
  <path class="cls-2" d="M102.5,85.3c23.3,17.5,48.4,53.1,57.5,72.2v50.4c0-1.1-.4.1-1.3,2.8-4.8,14.1-23.5,69.4-66.4,25.2-22.6-23.2-12.1-46.5,29-53.5-23.5,4-49.9-2.6-57.2-28.6-2.1-7.5-5.6-53.6-5.6-59.8,0-31.2,27.2-21.4,44-8.7ZM217.5,85.3c-23.3,17.5-48.4,53.1-57.5,72.2v50.4c0-1.1.4.1,1.3,2.8,4.8,14.1,23.5,69.4,66.4,25.2,22.6-23.2,12.1-46.5-29-53.5,23.5,4,49.9-2.6,57.2-28.6,2.1-7.5,5.6-53.6,5.6-59.8,0-31.2-27.2-21.4-44-8.7Z"/>
</svg>