<?xml version="1.0" encoding="utf-8"?>
<!-- Generator: Adobe Illustrator 28.3.0, SVG Export Plug-In . SVG Version: 6.00 Build 0)  -->
<svg version="1.1" id="레이어_1" xmlns="http://www.w3.org/2000/svg" xmlns:xlink="http://www.w3.org/1999/xlink" x="0px"
	 y="0px" viewBox="0 0 128 128" style="enable-background:new 0 0 128 128;" xml:space="preserve">
<style type="text/css">
	.st0{clip-path:url(#SVGID_00000042718341902635721310000001727805579966204345_);}
	.st1{fill:#2C2C2C;}
	.st2{fill:#FFFFFF;}
</style>
<g>
	<defs>
		<rect id="SVGID_1_" width="128" height="128"/>
	</defs>
	<clipPath id="SVGID_00000082360780723041039630000012045349097362659490_">
		<use xlink:href="#SVGID_1_"  style="overflow:visible;"/>
	</clipPath>
	<g style="clip-path:url(#SVGID_00000082360780723041039630000012045349097362659490_);">
		<path class="st1" d="M21,0h86c11.6,0,21,9.4,21,21v86c0,11.6-9.4,21-21,21H21c-11.6,0-21-9.4-21-21V21C0,9.4,9.4,0,21,0z"/>
		<path class="st2" d="M39.8,59.7c-0.3-3.2-2.4-5.3-6-5.3c-4.7,0-7.4,3.6-7.4,9.7c0,6.4,2.7,9.7,7.3,9.7c3.4,0,5.6-1.9,6.1-4.9
			l9,0.1c-0.5,5.8-5.6,12.6-15.3,12.6c-9.3,0-16.3-6.2-16.3-17.4c0-11.3,7.2-17.4,16.3-17.4c8.4,0,14.6,4.7,15.3,13.1H39.8z
			 M59.1,47.1V81h-8.9V47.1H59.1z M60.9,81V47.1h8.9v17.2h0.3l6.4-8.7h10l-8.7,11.2l9,14.3H76.6l-5.4-9.1l-1.5,1.8V81H60.9z
			 M100.8,63.8c-0.2-1.6-1.7-2.6-3.6-2.6c-1.7,0-3,0.7-3,1.8c0,0.8,0.6,1.5,2.6,1.9l5.1,0.9c5.2,0.9,7.7,3.1,7.7,6.9
			c0,5.4-5.2,8.8-12.1,8.8c-7.7,0-12.1-3.4-12.7-8.6h8.8c0.3,1.6,1.7,2.6,3.9,2.6c1.8,0,3-0.7,3.1-1.8c0-1-0.9-1.6-3-2l-4.5-0.8
			c-5.2-0.9-7.7-3.5-7.7-7.5c0-5.2,4.5-8.2,11.6-8.2c7.2,0,11.7,3.2,11.9,8.5H100.8z"/>
	</g>
</g>
</svg>
